<svg width="486" height="142" viewBox="0 0 486 142" fill="none" xmlns="http://www.w3.org/2000/svg">
<g clip-path="url(#clip0_31_63)">
<path d="M38.192 85.0277V75.7331H60.3845V105.476L48.4109 112.395H21.2637L9.29004 105.476V45.9906L21.2637 39.0713H48.4109L60.3845 45.9906V57.6604H50.0624V48.3658H19.6122V103.1H50.0624V85.0277H38.192ZM120.646 39.5877L146.451 111.879H136.335L130.245 94.7353H98.2465L92.1565 111.879H82.0408L107.846 39.5877H120.646ZM114.143 49.8117L101.55 85.4407H126.942L114.349 49.8117H114.143ZM194.042 83.0655H178.456V111.879H168.134V39.5877H205.19L217.164 46.5069V76.1462L205.19 83.0655L221.809 111.879H210.351L194.042 83.0655ZM178.456 48.8822V73.7709H206.842V48.8822H178.456ZM272.003 83.0655H256.416V111.879H246.094V39.5877H283.151L295.124 46.5069V76.1462L283.151 83.0655L299.769 111.879H288.312L272.003 83.0655ZM256.416 48.8822V73.7709H284.802V48.8822H256.416ZM324.054 111.879V39.5877H334.376V111.879H324.054Z" fill="white"/>
<path d="M412.885 111.879C434.263 111.879 451.593 94.5401 451.593 73.1516C451.593 51.7631 434.263 34.4243 412.885 34.4243C391.507 34.4243 374.177 51.7631 374.177 73.1516C374.177 94.5401 391.507 111.879 412.885 111.879Z" fill="#FFE600"/>
<path d="M468.796 34.4242C478.298 34.4242 486 26.7181 486 17.2121C486 7.70613 478.298 0 468.796 0C459.295 0 451.593 7.70613 451.593 17.2121C451.593 26.7181 459.295 34.4242 468.796 34.4242Z" fill="white"/>
</g>
<defs>
<clipPath id="clip0_31_63">
<rect width="486" height="142" fill="white"/>
</clipPath>
</defs>
</svg>
