<svg width="111" height="27" viewBox="0 0 111 27" fill="none" xmlns="http://www.w3.org/2000/svg">
<path d="M6.88 19.76V17.6H12.04V24.512L9.256 26.12H2.944L0.16 24.512V10.688L2.944 9.08H9.256L12.04 10.688V13.4H9.64V11.24H2.56V23.96H9.64V19.76H6.88ZM26.0513 9.2L32.0513 26H29.6993L28.2833 22.016H20.8433L19.4273 26H17.0753L23.0753 9.2H26.0513ZM24.5393 11.576L21.6113 19.856H27.5153L24.5873 11.576H24.5393ZM43.1168 19.304H39.4928V26H37.0928V9.2H45.7088L48.4928 10.808V17.696L45.7088 19.304L49.5728 26H46.9088L43.1168 19.304ZM39.4928 11.36V17.144H46.0928V11.36H39.4928ZM61.2434 19.304H57.6194V26H55.2194V9.2H63.8354L66.6194 10.808V17.696L63.8354 19.304L67.6994 26H65.0354L61.2434 19.304ZM57.6194 11.36V17.144H64.2194V11.36H57.6194ZM73.3459 26V9.2H75.7459V26H73.3459Z" fill="white"/>
<circle cx="94" cy="17" r="9" fill="#FFE600"/>
<circle cx="107" cy="4" r="4" fill="white"/>
</svg>
